HIERARCHY
ROOT Hips
{
	OFFSET 0.00000 0.00000 0.00000
	CHANNELS 6 Xposition Yposition Zposition Zrotation Yrotation Xrotation 
	JOINT LHipJoint
	{
		OFFSET 0 0 0
		CHANNELS 3 Zrotation Yrotation Xrotation
		JOINT LeftUpLeg
		{
			OFFSET 1.57338 -1.94743 0.52196
			CHANNELS 3 Zrotation Yrotation Xrotation
			JOINT LeftLeg
			{
				OFFSET 2.60333 -7.15259 0.00000
				CHANNELS 3 Zrotation Yrotation Xrotation
				JOINT LeftFoot
				{
					OFFSET 2.77855 -7.63400 0.00000
					CHANNELS 3 Zrotation Yrotation Xrotation
					JOINT LeftToeBase
					{
						OFFSET 0.19847 -0.54529 2.28466
						CHANNELS 3 Zrotation Yrotation Xrotation
						End Site
						{
							OFFSET 0.00000 -0.00000 1.17993
						}
					}
				}
			}
		}
	}
	JOINT RHipJoint
	{
		OFFSET 0 0 0
		CHANNELS 3 Zrotation Yrotation Xrotation
		JOINT RightUpLeg
		{
			OFFSET -1.61527 -1.94743 0.52196
			CHANNELS 3 Zrotation Yrotation Xrotation
			JOINT RightLeg
			{
				OFFSET -2.53829 -6.97390 0.00000
				CHANNELS 3 Zrotation Yrotation Xrotation
				JOINT RightFoot
				{
					OFFSET -2.80762 -7.71387 0.00000
					CHANNELS 3 Zrotation Yrotation Xrotation
					JOINT RightToeBase
					{
						OFFSET -0.30536 -0.83898 2.28801
						CHANNELS 3 Zrotation Yrotation Xrotation
						End Site
						{
							OFFSET -0.00000 -0.00000 1.21323
						}
					}
				}
			}
		}
	}
	JOINT LowerBack
	{
		OFFSET 0 0 0
		CHANNELS 3 Zrotation Yrotation Xrotation
		JOINT Spine
		{
			OFFSET -0.04381 1.99497 -0.19778
			CHANNELS 3 Zrotation Yrotation Xrotation
			JOINT Spine1
			{
				OFFSET -0.01959 2.01295 -0.04372
				CHANNELS 3 Zrotation Yrotation Xrotation
				JOINT Neck
				{
					OFFSET 0 0 0
					CHANNELS 3 Zrotation Yrotation Xrotation
					JOINT Neck1
					{
						OFFSET -0.05459 1.76913 0.09708
						CHANNELS 3 Zrotation Yrotation Xrotation
						JOINT Head
						{
							OFFSET 0.09461 1.77368 -0.11172
							CHANNELS 3 Zrotation Yrotation Xrotation
							End Site
							{
								OFFSET 0.03812 1.78157 -0.04834
							}
						}
					}
				}
				JOINT LeftShoulder
				{
					OFFSET 0 0 0
					CHANNELS 3 Zrotation Yrotation Xrotation
					JOINT LeftArm
					{
						OFFSET 3.50922 1.24034 -0.28866
						CHANNELS 3 Zrotation Yrotation Xrotation
						JOINT LeftForeArm
						{
							OFFSET 5.40188 -0.00000 0.00000
							CHANNELS 3 Zrotation Yrotation Xrotation
							JOINT LeftHand
							{
								OFFSET 3.68559 -0.00000 0.00000
								CHANNELS 3 Zrotation Yrotation Xrotation
								JOINT LeftFingerBase
								{
									OFFSET 0 0 0
									CHANNELS 3 Zrotation Yrotation Xrotation
									JOINT LeftHandIndex1
									{
										OFFSET 0.61753 -0.00000 0.00000
										CHANNELS 3 Zrotation Yrotation Xrotation
										End Site
										{
											OFFSET 0.49787 -0.00000 0.00000
										}
									}
								}
								JOINT LThumb
								{
									OFFSET 0 0 0
									CHANNELS 3 Zrotation Yrotation Xrotation
									End Site
									{
										OFFSET 0.50547 -0.00000 0.50547
									}
								}
							}
						}
					}
				}
				JOINT RightShoulder
				{
					OFFSET 0 0 0
					CHANNELS 3 Zrotation Yrotation Xrotation
					JOINT RightArm
					{
						OFFSET -2.95373 1.39649 -0.27346
						CHANNELS 3 Zrotation Yrotation Xrotation
						JOINT RightForeArm
						{
							OFFSET -6.10670 -0.00000 -0.00000
							CHANNELS 3 Zrotation Yrotation Xrotation
							JOINT RightHand
							{
								OFFSET -3.63052 -0.00000 0.00000
								CHANNELS 3 Zrotation Yrotation Xrotation
								JOINT RightFingerBase
								{
									OFFSET 0 0 0
									CHANNELS 3 Zrotation Yrotation Xrotation
									JOINT RightHandIndex1
									{
										OFFSET -0.58385 -0.00000 0.00000
										CHANNELS 3 Zrotation Yrotation Xrotation
										End Site
										{
											OFFSET -0.47071 -0.00000 0.00000
										}
									}
								}
								JOINT RThumb
								{
									OFFSET 0 0 0
									CHANNELS 3 Zrotation Yrotation Xrotation
									End Site
									{
										OFFSET -0.47790 -0.00000 0.47790
									}
								}
							}
						}
					}
				}
			}
		}
	}
}
MOTION
Frames: 6
Frame Time: .0083333
-8.1436 18.6133 5.9049 0 0 0 0 0 0 -21 0 0 0 0 0 0 0 0 0 0 0 0 0 0 21 0 0 0 0 0 0 0 0 0 0 0 0 0 0 0 0 0 0 0 0 0 0 -16 0 0 21 0 0 11 0 0 0 -8 0 0 0 0 0 0 0 0 0 0 0 0 0 0 0 0 0 0 0 0 8 0 0 0 0 0 0 0 0 0 0 0 0 0 0 0 0 0
-8.1436 18.6133 5.9049 -0.4272 -12.3149 1.7363 0.0000 0.0000 0.0000 -20.6655 -7.2247 -0.8229 1.5718 7.9105 22.4426 1.0861 7.4702 -23.7229 0.1324 -2.3458 -6.4622 0.0000 0.0000 0.0000 21.1691 22.3917 3.1816 -1.8620 -8.5725 24.4670 -1.1490 -5.0072 -22.6316 -0.0374 1.2486 -3.4330 -0.7168 -0.4903 3.5574 -0.5789 -0.6916 0.4491 -0.1581 -0.3429 -1.5319 -11.2326 -6.1478 -8.4619 8.6329 -7.8879 10.6227 3.9282 -3.7962 5.3751 0.0000 0.0000 0.0000 -86.6532 4.1497 7.7085 13.6019 -22.1628 -2.6761 -0.0000 -0.0000 13.0178 22.5152 23.2667 9.2992 -7.1250 0.0000 -0.0000 -7.0765 54.8007 -1.7099 0.0000 0.0000 0.0000 84.5924 -4.2465 18.1161 -13.5606 22.1030 -2.6605 0.0000 0.0000 18.7259 -27.7605 1.8106 -0.9528 7.1250 -0.0000 -0.0000 -0.9124 -27.9335 -0.3787
-8.1400 18.6131 5.8942 -0.4025 -12.1796 1.6906 0.0000 0.0000 0.0000 -20.6395 -7.1134 -0.8439 1.5676 7.9004 22.4120 1.0660 7.2138 -23.3726 0.1255 -2.2838 -6.2907 0.0000 0.0000 0.0000 21.1443 22.3068 3.1578 -1.8659 -8.5809 24.4928 -1.1476 -5.0577 -22.6499 -0.0384 1.2642 -3.4762 -0.7094 -0.4744 3.6028 -0.5991 -0.6707 0.4893 -0.1838 -0.3327 -1.5164 -11.1490 -6.0829 -8.5927 8.5433 -7.7963 10.8188 3.8910 -3.7508 5.4416 -0.0000 -0.0000 0.0000 -86.6034 4.0471 7.7001 13.5556 -22.0958 -2.6586 -0.0000 -0.0000 12.9320 22.6877 22.9320 9.2517 -7.1250 0.0000 -0.0000 -6.7738 54.4869 -1.5844 -0.0000 -0.0000 0.0000 84.6210 -4.2082 17.6384 -13.3454 21.7912 -2.5801 0.0000 0.0000 19.0118 -27.5939 1.6745 -0.8750 7.1250 -0.0000 -0.0000 -0.7866 -28.0902 -0.3236
-8.1334 18.6119 5.8882 -0.3775 -11.9348 1.5222 0.0000 0.0000 0.0000 -20.6768 -7.3162 -0.6235 1.5638 7.8913 22.3845 1.1113 6.9962 -23.5968 0.0939 -1.9765 -5.4407 0.0000 0.0000 0.0000 21.1555 22.0689 3.3024 -1.8625 -8.5735 24.4700 -1.1506 -5.0962 -22.6975 -0.0363 1.2296 -3.3806 -0.6286 -0.4814 3.7119 -0.6240 -0.6778 0.5578 -0.2536 -0.3368 -1.5084 -11.0888 -5.9579 -8.7034 8.4614 -7.6260 11.0723 3.8680 -3.6684 5.5161 0.0000 -0.0000 0.0000 -86.5584 4.0565 7.9420 13.6161 -22.1832 -2.6814 -0.0000 -0.0000 12.6596 22.9805 23.1117 9.4508 -7.1250 0.0000 -0.0000 -6.5345 54.7322 -1.5672 0.0000 -0.0000 0.0000 84.5977 -4.2494 17.2389 -13.1420 21.4949 -2.5051 0.0000 0.0000 19.3489 -28.0896 2.7422 -1.4627 7.1250 -0.0000 -0.0000 -1.1404 -26.8717 -0.5019
-8.1297 18.6136 5.8793 -0.3354 -11.7193 1.4261 0.0000 0.0000 0.0000 -20.7079 -7.4290 -0.5360 1.5605 7.8835 22.3607 1.1095 6.8504 -23.4820 0.0840 -1.8694 -5.1448 0.0000 0.0000 0.0000 21.1325 21.9102 3.3506 -1.8627 -8.5741 24.4718 -1.1466 -5.1821 -22.7163 -0.0354 1.2153 -3.3414 -0.6144 -0.4727 3.8141 -0.6344 -0.6670 0.5640 -0.2718 -0.3314 -1.5596 -11.1079 -5.8143 -8.6335 8.4226 -7.4371 11.2037 3.8779 -3.5818 5.5250 0.0000 -0.0000 0.0000 -86.5320 4.1213 8.0835 13.7104 -22.3192 -2.7171 -0.0000 -0.0000 12.5308 22.9732 23.2768 9.5101 -7.1250 0.0000 -0.0000 -6.6024 54.9029 -1.6110 0.0000 -0.0000 0.0000 84.5381 -4.3531 17.0602 -13.0173 21.3126 -2.4596 0.0000 0.0000 19.4322 -28.1436 2.4689 -1.3200 7.1250 -0.0000 -0.0000 -1.1900 -27.1799 -0.5151
-8.1300 18.6163 5.8659 -0.3172 -11.5147 1.3994 0.0000 0.0000 0.0000 -20.6515 -7.3688 -0.6064 1.5588 7.8792 22.3479 1.0701 6.6592 -23.0203 0.0944 -1.9817 -5.4550 0.0000 0.0000 0.0000 21.1372 21.8458 3.3300 -1.8623 -8.5732 24.4691 -1.1424 -5.3045 -22.7546 -0.0328 1.1696 -3.2156 -0.6306 -0.4525 3.8969 -0.6397 -0.6420 0.5269 -0.2686 -0.3186 -1.6439 -11.0628 -5.6694 -8.4118 8.3385 -7.2579 11.2011 3.8656 -3.5033 5.4634 0.0000 -0.0000 0.0000 -86.4758 4.1604 8.0535 13.7622 -22.3937 -2.7368 -0.0000 -0.0000 12.5900 22.5638 23.2634 9.3199 -7.1250 0.0000 -0.0000 -7.0247 54.8070 -1.6984 0.0000 -0.0000 0.0000 84.5321 -4.4931 16.8424 -12.9220 21.1728 -2.4250 0.0000 0.0000 19.5244 -28.4909 3.7268 -2.0205 7.1250 -0.0000 -0.0000 -1.4103 -25.7409 -0.6580
